/* XPM */
static char *b22ab7bb571d4151a1107d9cd5d276e39RW88GRoe3Ar5jY2[] = {
/* columns rows colors chars-per-pixel */
"64 64 194 2 ",
"   c white",
".  c gray94",
"X  c gray73",
"o  c #6F6F6F",
"O  c #3C3C3C",
"+  c gray20",
"@  c #2F2F2F",
"#  c #313131",
"$  c gray19",
"%  c #323232",
"&  c #3E3E3E",
"*  c #5F5F5F",
"=  c gray46",
"-  c #868686",
";  c #A9A9A9",
":  c #B4B4B4",
">  c gray70",
",  c #B2B2B2",
"<  c #C0C0C0",
"1  c gray97",
"2  c #E7E7E7",
"3  c #9A9A9A",
"4  c #4B4B4B",
"5  c gray12",
"6  c gray5",
"7  c #060606",
"8  c gray2",
"9  c #070707",
"0  c #040404",
"q  c gray3",
"w  c #0C0C0C",
"e  c #0B0B0B",
"r  c #101010",
"t  c #232323",
"y  c #555555",
"u  c gray58",
"i  c gray72",
"p  c #EEEEEE",
"a  c #ACACAC",
"s  c gray14",
"d  c #1E1E1E",
"f  c gray30",
"g  c #767676",
"h  c #777777",
"j  c gray47",
"k  c #717171",
"l  c #353535",
"z  c gray13",
"x  c gray7",
"c  c #0E0E0E",
"v  c gray6",
"b  c #090909",
"n  c #272727",
"m  c gray54",
"M  c gray98",
"N  c #F1F1F1",
"B  c #BCBCBC",
"V  c gray9",
"C  c gray18",
"Z  c #656565",
"A  c gray69",
"S  c gray87",
"D  c #EFEFEF",
"F  c #C6C6C6",
"G  c gray",
"H  c gray75",
"J  c #A4A4A4",
"K  c #606060",
"L  c gray4",
"P  c gray37",
"I  c gray80",
"U  c #3F3F3F",
"Y  c #131313",
"T  c gray11",
"R  c #B1B1B1",
"E  c #F6F6F6",
"W  c #D2D2D2",
"Q  c gray67",
"!  c #373737",
"~  c #989898",
"^  c LightGray",
"/  c #161616",
"(  c #020202",
")  c #A7A7A7",
"_  c gray22",
"`  c gray91",
"'  c black",
"]  c #010101",
"[  c gray56",
"{  c #191919",
"}  c gainsboro",
"|  c gray99",
" . c #515151",
".. c gray1",
"X. c #B6B6B6",
"o. c gray27",
"O. c #FBFBFB",
"+. c gray90",
"@. c #8E8E8E",
"#. c gray23",
"$. c #252525",
"%. c #808080",
"&. c #F8F8F8",
"*. c gray16",
"=. c gray51",
"-. c gray74",
";. c #111111",
":. c #8D8D8D",
">. c #282828",
",. c #4C4C4C",
"<. c gray92",
"1. c #818181",
"2. c gray82",
"3. c #747474",
"4. c #6A6A6A",
"5. c #535353",
"6. c #FEFEFE",
"7. c gray50",
"8. c #C3C3C3",
"9. c gray93",
"0. c #1D1D1D",
"q. c #A5A5A5",
"w. c #C8C8C8",
"e. c #AFAFAF",
"r. c gray48",
"t. c #E6E6E6",
"y. c #343434",
"u. c #797979",
"i. c #646464",
"p. c gray44",
"a. c #3A3A3A",
"s. c #414141",
"d. c gray33",
"f. c #727272",
"g. c gray26",
"h. c gray36",
"j. c #202020",
"k. c #ECECEC",
"l. c #B9B9B9",
"z. c gray89",
"x. c gray34",
"c. c DimGray",
"v. c #181818",
"b. c gray83",
"n. c #D7D7D7",
"m. c gray40",
"M. c gray35",
"N. c gray85",
"B. c #6C6C6C",
"V. c #F3F3F3",
"C. c gray61",
"Z. c gray15",
"A. c #151515",
"S. c #CACACA",
"D. c gray88",
"F. c #393939",
"G. c gray78",
"H. c #FDFDFD",
"J. c #585858",
"K. c #9B9B9B",
"L. c gray96",
"P. c gray8",
"I. c #C5C5C5",
"U. c #1B1B1B",
"Y. c #676767",
"T. c gray10",
"R. c gray42",
"E. c gray21",
"W. c #C1C1C1",
"Q. c #9F9F9F",
"!. c #E9E9E9",
"~. c #494949",
"^. c gray31",
"/. c #AEAEAE",
"(. c #E2E2E2",
"). c #F9F9F9",
"_. c #D0D0D0",
"`. c gray76",
"'. c #CBCBCB",
"]. c #A0A0A0",
"[. c gray43",
"{. c #2D2D2D",
"}. c #484848",
"|. c #F4F4F4",
" X c #5D5D5D",
".X c #DADADA",
"XX c gray17",
"oX c #2A2A2A",
"OX c gray81",
"+X c #E4E4E4",
"@X c #5A5A5A",
"#X c #B7B7B7",
"$X c #848484",
"%X c #888888",
/* pixels */
"                                                                                                                                ",
"                                                                                                                                ",
"                                                                                                                                ",
"                                                                                                                                ",
"                                                                                                                                ",
"                                                                                                                                ",
"                                                                                                                                ",
"                                          . X o O + @ # + @ $ % $ # & * = - ; : > , > > , > > , < 1                             ",
"                                    2 3 4 5 6 7 8 7 7 8 7 7 8 9 7 8 0 0 9 9 q w e e w w e w e e r t y u i p                     ",
"                                  a s q 8 0 e d f g = = h = = j = k f l # z x r r c r r 6 v v 6 b 0 8 9 c n m M                 ",
"                              N B V 9 6 C Z A S                           D F G H G < H H H H G J K + V L 7 e P                 ",
"                            I U Y q T R 1                                                           E W Q ! q L ~               ",
"                          ^ / ( ( c )                                                                     E + 7 _               ",
"                        ` Y ' ] L [                                                                         [ 9 { }             ",
"                      |  ...( d B                                                                           i c 6 X.            ",
"                      = e q o.O.                                                                            +.{ 7 @.            ",
"                    G x 9 #.N                                                                               O.$.7 %.            ",
"                  &.#.7 s 2                                                                                 O.*.9 =.            ",
"                  -.;.b :.                                                                                  O.>.7 =.            ",
"                  ,.q s <.                                                                                  O.n 7 1.            ",
"                2.Y 9 3.                                                                                    O.>.7 =.            ",
"                4.9 d +.                                                                                    O.>.7 1.            ",
"              p s 8 5.6.                                                                                    O.n 7 7.            ",
"              8.Y e ;                                                                                       9.0.9 -             ",
"              q.L Y w.                                                                                      X w e e.            ",
"              r.7 z &.                                                                                      %.9 0.t.            ",
"              r.9 $                                                                                         o 7 y.              ",
"              j 7 @                                                                                         4.7 l               ",
"              u.7 C                                                                                         k q #.              ",
"              i.9 #.                                                                                        p.9 a.              ",
"              s.7 d.                                                                                        4.7 l               ",
"              ! 9 f.                                                                                        k q #.              ",
"              g.9 P                                                                                         p.9 a.              ",
"              h.7 #.                                                                                        4.7 l               ",
"              u.9 @                                                                                         k q #.              ",
"              =.q j.k.                                                                                      p.9 a.              ",
"              a q v B                                                                                       4.7 l               ",
"              l.v e R                                                                                       k q #.              ",
"              z.z 7 x.                                                                                      p.9 a.              ",
"                c.9 v.b.                                                                                    4.7 l               ",
"                n.v.9 m.                                                                                    k q a.              ",
"                  M.9 { N.                                                                                  B.9 O               ",
"                  2.V 7 5.                                                                                V.C 8 g.              ",
"                    4.q ;.C.                                                                              :.e c C.              ",
"                    k.Z.8 A.S.                                                                          D.d 7 F.6.              ",
"                      G.A.0 & H.                                                                        J.8 ;.:                 ",
"                        u.q ;.K.                                                                      . z 7 x.                  ",
"                        L.*.7 P.,                                                                   M 4 9 r 8.                  ",
"                          I.U.8 t S                                                                 X.v q Y.                    ",
"                            J 6 9 T.u                                                             I.s 7 n p                     ",
"                              B.v 0 c R.M                                                       u V 9 ;.J                       ",
"                              | B *.9 L E.W.                                            6.` k % e 8 T.Q.                        ",
"                                  !.~.6 9 P.^./.(.                                ).F [ o.0.q 8 7 *._.                          ",
"                                    O.:.z q 7 6 T ,.- `.9.                1 '.].[.{.x q 8 9 x }.1.|.                            ",
"                                        !.3.s c 7 7 9 r n  X/.p |.|..X:.M.XXx q 7 8 b / ! 7.S.                                  ",
"                                            <.l.p.a.{ e 7 0 e v.s t ;.b 8 8 q x oX .Q.OX                                        ",
"                                                    +Xa K z v 7 9 9 7 A.l @XK._.L.                                              ",
"                                                          ` #X$X%X%X@.n.6.                                                      ",
"                                                                                                                                ",
"                                                                                                                                ",
"                                                                                                                                ",
"                                                                                                                                ",
"                                                                                                                                ",
"                                                                                                                                "
};
