/* XPM */
static char *_9591a4483a34cee812ec127626288d2Y1SzQCkA7dmWdDWv[] = {
/* columns rows colors chars-per-pixel */
"64 64 128 2 ",
"   c #C9C520",
".  c #D1CE42",
"X  c #D3CF48",
"o  c #D1CE41",
"O  c #D8D55F",
"+  c #D5D254",
"@  c #D3D04A",
"#  c #D3CF47",
"$  c #CFCB38",
"%  c #D3D04B",
"&  c #CECA33",
"*  c #D7D45A",
"=  c #D5D251",
"-  c #CCC92E",
";  c #D7D45B",
":  c #D5D253",
">  c #D9D662",
",  c #D4D04C",
"<  c #D5D250",
"1  c #D8D660",
"2  c #D6D357",
"3  c #CAC726",
"4  c #D0CD3D",
"5  c #D9D763",
"6  c #D2CF45",
"7  c #D8D55C",
"8  c #C9C522",
"9  c #D0CC3B",
"0  c #CDC931",
"q  c #D8D55D",
"w  c #D4D14E",
"e  c #D0CC3C",
"r  c #CCC82B",
"t  c #D1CD3F",
"y  c #D0CD3F",
"u  c #CDCA31",
"i  c #CBC727",
"p  c #C9C521",
"a  c #CCC82C",
"s  c #D1CD3B",
"d  c #E7E488",
"f  c #F0EEAA",
"g  c #EFEDA6",
"h  c #E5E281",
"j  c #CECA30",
"k  c #CFCB34",
"l  c #F2F0B0",
"z  c #F3F1B3",
"x  c #EFECA3",
"c  c #E4E280",
"v  c #DCD964",
"b  c #CAC625",
"n  c #D2CE3E",
"m  c #CECB32",
"M  c #CDC92E",
"N  c #E4E17D",
"B  c #EFEDA5",
"V  c #F1EEAA",
"C  c #E7E489",
"Z  c #D1CD3C",
"A  c #EDEB9E",
"S  c #E6E385",
"D  c #DEDB6A",
"F  c #ECE999",
"G  c #CBC728",
"H  c #EEECA2",
"J  c #F2F0B1",
"K  c #F0EDA7",
"L  c #DEDB68",
"P  c #DAD75B",
"I  c #F3F1B2",
"U  c #EDEA9D",
"Y  c #EBE998",
"T  c #F3F0B1",
"R  c #DFDC6E",
"E  c #E2DF76",
"W  c #EAE895",
"Q  c #D3CF43",
"!  c #CAC725",
"~  c #CAC624",
"^  c #E9E690",
"/  c #DAD65A",
"(  c #DDDA67",
")  c #C9C622",
"_  c #F0EEA8",
"`  c #CBC829",
"'  c #CECA31",
"]  c #E8E58C",
"[  c #DDDA65",
"{  c #D8D556",
"}  c #CCC92C",
"|  c #CCC82A",
" . c #CAC622",
".. c #EFEDA4",
"X. c #D8D453",
"o. c #D6D24C",
"O. c #D8D554",
"+. c #CDC92D",
"@. c #DEDB69",
"#. c #D7D452",
"$. c #D3D044",
"%. c #CFCC36",
"&. c #EEEBA1",
"*. c #D9D557",
"=. c #EEECA1",
"-. c #ECEA9B",
";. c #EAE894",
":. c #D0CC39",
">. c #E6E486",
",. c #F0EEA7",
"<. c #D9D658",
"1. c #D4D147",
"2. c #DBD85E",
"3. c #E3E07C",
"4. c #D0CD39",
"5. c #E2DF78",
"6. c #E0DE72",
"7. c #E1DE73",
"8. c #E5E383",
"9. c #EEECA3",
"0. c #D2CE3F",
"q. c #ECE99A",
"w. c #E8E68E",
"e. c #E4E17F",
"r. c #DDDA66",
"t. c #F2F0AE",
"y. c #F1EFAB",
"u. c #E7E589",
/* pixels */
"                                                                                                                                ",
"                                                                                                                                ",
"                                                                                                                                ",
"                                                                                                                                ",
"                                                                                                                                ",
"                                                                                                                                ",
"                                                                                                                                ",
"                                                                                                                                ",
"                                                                                                                                ",
"                                                                                                                                ",
"                                                                                                                                ",
"                                                                                                                                ",
"                                                                                                                                ",
"                                                                                                                                ",
"                                                                                                                                ",
"    . X o O + @ # $ % & * = - .   ; : .                                                                                         ",
"    > , < 1 X . 2 3 4 5 6 7 8 9 0 q . $                                                                                         ",
"    w e & r t 4 r y $ 9           u                                                                                             ",
"            i   r p a                                                                                                           ",
"                                                                                                                                ",
"                                                                                                                                ",
"                                                                                                                                ",
"                                                                                                                                ",
"                                                                                                                                ",
"                                                                                                                                ",
"                                                                                                                                ",
"                                                                                                                                ",
"                                                                                                                                ",
"                                                                                                                                ",
"                                                                                                                                ",
"                                                                                                                                ",
"                                                                                                                                ",
"                                                                                                                                ",
"                                                                                                                                ",
"                                                                                                                                ",
"                                                          s d f g h j                                                           ",
"                                                        k l z z z z x i                                                         ",
"                                                        c z z z z z z v   b n m                                                 ",
"                                            M N B V C Z A z z z z z z S D l z z F n                                             ",
"                                          G H z z z z l l z z z z z z J z z z z z K r                                           ",
"                                          L z z z z z z z z z z z z z z z z z z z z P                                           ",
"                                          S z z z z z z z z I U Y T z z z z z z z z R                                           ",
"                                          E z z z z z z W Q !     ~ Q ^ z z z z z z /                                           ",
"                                          s I z z z z ( )             p ( I z z z _ `                                           ",
"                                          ' ] z z z R                     [ z z z ] { }                                         ",
"                                      | ] z z z z B b                      .A z z z z ..s                                       ",
"                                    ! Y z z z z z R                         [ z z z z z g a                                     ",
"                                    X.z z z z z z o.                        Z z z z z z z O.                                    ",
"                                    L z z z z z z s                         +.z z z z z z @.                                    ",
"                                    #.z z z z z z $.                        %.z z z z z z #.                                    ",
"                                    ! &.z z z z z [                         *.z z z z z =.b                                     ",
"                                      s F z z z z -.~                     ) ;.z z z z W :.                                      ",
"                                        p Q >.z z z R                     [ z z z d '                                           ",
"                                          r ,.z z z z <.                <.I z z z z 1.                                          ",
"                                          2.z z z z z I 3.s         4.5.I z z z z z 5.                                          ",
"                                          6.z z z z z z z z Y 5.7.W z z z z z z z z 8.                                          ",
"                                          <.z z z z z z z z z z z z z z z z z z z z [                                           ",
"                                          b B z z z z z J z z z z z z J z z z z z 9.i                                           ",
"                                            0.q.z z l D S z z z z z z A Z w.z l e.M                                             ",
"                                                m n b   r.z z z z z z e.    ' |                                                 ",
"                                                        i g z z z z t.k                                                         ",
"                                                          ' 8.B y.u.4.                                                          ",
"                                                                                                                                ",
"                                                                                                                                "
};
