/* XPM */
static char *_9ba0c18537348c39bd901df2a52e66fZzodq5xCKVld2IPf[] = {
/* columns rows colors chars-per-pixel */
"64 64 64 1 ",
"  c red",
". c #FF0100",
"X c #FF0200",
"o c #FF0300",
"O c #FF0500",
"+ c #FF0600",
"@ c #FF0900",
"# c #FF0A00",
"$ c #FE1200",
"% c #FE1700",
"& c #FE1D00",
"* c #FD2000",
"= c #FD2200",
"- c #FC2A00",
"; c #FC2B00",
": c #FC3000",
"> c #FB3600",
", c #F84500",
"< c #F65000",
"1 c #F06300",
"2 c #EC7000",
"3 c green",
"4 c #00FF01",
"5 c #00FF02",
"6 c #00FF03",
"7 c #00FF05",
"8 c #00FF09",
"9 c #00FF0A",
"0 c #00FF0E",
"q c #00FE10",
"w c #00FE12",
"e c #00FE14",
"r c #00FE15",
"t c #00FE1A",
"y c #00FE1B",
"u c #00FE1D",
"i c #00FD24",
"p c #00FD27",
"a c #00FC2B",
"s c #00FC2F",
"d c #00FA39",
"f c #00F93E",
"g c #7AE800",
"h c #00F943",
"j c #00F650",
"k c #00F458",
"l c #00F25F",
"z c #00EE69",
"x c #00EA74",
"c c #BCBC00",
"v c #D79A00",
"b c #E28700",
"n c #E18900",
"m c #A0D200",
"M c blue",
"N c #007AE8",
"B c #00B8BF",
"V c #00BCBC",
"C c #00DE8E",
"Z c #00D79A",
"A c #00D59D",
"S c #00E581",
"D c #00C8AD",
"F c #00A0D2",
/* pixels */
"                     233333333333333333eMMMMMMMMMMMMMMMMMMMMMMMM",
"                     2333333333333333337MMMMMMMMMMMMMMMMMMMMMMMM",
"                     2333333333333333333MMMMMMMMMMMMMMMMMMMMMMMM",
"                     2333333333333333333MMMMMMMMMMMMMMMMMMMMMMMM",
"                     2333333333333333333MMMMMMMMMMMMMMMMMMMMMMMM",
"                     2333333333333333333MMMMMMMMMMMMMMMMMMMMMMMM",
"                     2333333333333333333MMMMMMMMMMMMMMMMMMMMMMMM",
"                     2333333333333333333MMMMMMMMMMMMMMMMMMMMMMMM",
"                     b333333333333333333MMMMMMMMMMMMMMMMMMMMMMMM",
"                     v333333333333333333MMMMMMMMMMMMMMMMMMMMMMMM",
"                     m333333333333333333MMMMMMMMMMMMMMMMMMMMMMMM",
"                     g333333333333333333MMMMMMMMMMMMMMMMMMMMMMMM",
"                    13333333333333333333MMMMMMMMMMMMMMMMMMMMMMMM",
"                    n3333333333333333333VMMMMMMMMMMMMMMMMMMMMMMM",
"                    c3333333333333333333kMMMMMMMMMMMMMMMMMMMMMMM",
"                    33333333333333333333fMMMMMMMMMMMMMMMMMMMMMMM",
"                   =33333333333333333333aMMMMMMMMMMMMMMMMMMMMMMM",
"                   <33333333333333333333uMMMMMMMMMMMMMMMMMMMMMMM",
"                   233333333333333333333qMMMMMMMMMMMMMMMMMMMMMMM",
"                   v333333333333333333338MMMMMMMMMMMMMMMMMMMMMMM",
"                   m333333333333333333337MMMMMMMMMMMMMMMMMMMMMMM",
"                   g333333333333333333333MMMMMMMMMMMMMMMMMMMMMMM",
"                   g333333333333333333333MMMMMMMMMMMMMMMMMMMMMMM",
"                   3333333333333333333333MMMMMMMMMMMMMMMMMMMMMMM",
"                   3333333333333333333333MMMMMMMMMMMMMMMMMMMMMMM",
"                   3333333333333333333333MMMMMMMMMMMMMMMMMMMMMMM",
"                   3333333333333333333333MMMMMMMMMMMMMMMMMMMMMMM",
"                   3333333333333333333333MMMMMMMMMMMMMMMMMMMMMMM",
"                   3333333333333333333333MMMMMMMMMMMMMMMMMMMMMMM",
"                   3333333333333333333337MMMMMMMMMMMMMMMMMMMMMMM",
"                   3333333333333333333338MMMMMMMMMMMMMMMMMMMMMMM",
"                  +3333333333333333333330MMMMMMMMMMMMMMMMMMMMMMM",
"                  #333333333333333333333eMMMMMMMMMMMMMMMMMMMMMMM",
"                  %333333333333333333333yMMMMMMMMMMMMMMMMMMMMMMM",
"                  =333333333333333333333iMMMMMMMMMMMMMMMMMMMMMMM",
"                  ;333333333333333333333sMMMMMMMMMMMMMMMMMMMMMMM",
"                  >333333333333333333333hMMMMMMMMMMMMMMMMMMMMMMM",
"                  ,333333333333333333333lMMMMMMMMMMMMMMMMMMMMMMM",
"                  ,333333333333333333333zMMMMMMMMMMMMMMMMMMMMMMM",
"                  ,333333333333333333333xMMMMMMMMMMMMMMMMMMMMMMM",
"                  ,333333333333333333333xMMMMMMMMMMMMMMMMMMMMMMM",
"                  ,333333333333333333333SMMMMMMMMMMMMMMMMMMMMMMM",
"                  ,333333333333333333333CMMMMMMMMMMMMMMMMMMMMMMM",
"                  ,333333333333333333333AMMMMMMMMMMMMMMMMMMMMMMM",
"                  ,333333333333333333333DMMMMMMMMMMMMMMMMMMMMMMM",
"                  ,333333333333333333333BMMMMMMMMMMMMMMMMMMMMMMM",
"                  :333333333333333333333FMMMMMMMMMMMMMMMMMMMMMMM",
"                  ;333333333333333333333NMMMMMMMMMMMMMMMMMMMMMMM",
"                  &333333333333333333333MMMMMMMMMMMMMMMMMMMMMMMM",
"                  $333333333333333333333MMMMMMMMMMMMMMMMMMMMMMMM",
"                  #333333333333333333333MMMMMMMMMMMMMMMMMMMMMMMM",
"                  +333333333333333333333MMMMMMMMMMMMMMMMMMMMMMMM",
"                   333333333333333333333MMMMMMMMMMMMMMMMMMMMMMMM",
"                   333333333333333333333MMMMMMMMMMMMMMMMMMMMMMMM",
"                   333333333333333333333NMMMMMMMMMMMMMMMMMMMMMMM",
"                   333333333333333333333FMMMMMMMMMMMMMMMMMMMMMMM",
"                   333333333333333333333ZMMMMMMMMMMMMMMMMMMMMMMM",
"                   333333333333333333333jMMMMMMMMMMMMMMMMMMMMMMM",
"                   333333333333333333333dMMMMMMMMMMMMMMMMMMMMMMM",
"                   333333333333333333333iMMMMMMMMMMMMMMMMMMMMMMM",
"                   333333333333333333333yMMMMMMMMMMMMMMMMMMMMMMM",
"                   333333333333333333333qMMMMMMMMMMMMMMMMMMMMMMM",
"                   3333333333333333333333MMMMMMMMMMMMMMMMMMMMMMM",
"                   3333333333333333333333MMMMMMMMMMMMMMMMMMMMMMM"
};
